# xmcd CD database file
#
# Track frame offsets:
#	150
#	3754
#	5270
#	8981
#	10564
#	11623
#	13539
#	18332
#	20244
#	21629
#	22959
#	25493
#	28657
#	30153
#	31822
#	32895
#	34791
#	43913
#	45278
#	48157
#	49689
#	51863
#	54149
#	56861
#	58133
#	59148
#	63564
#	64670
#	68928
#	73262
#	77630
#	83878
#	90416
#	92291
#	98476
#	102488
#	107621
#	116844
#	122042
#	135331
#	136701
#	138129
#	139603
#	142219
#	152935
#	169762
#	181879
#	189230
#	192308
#	193339
#	194425
#	195475
#	200247
#	204871
#	209632
#	211039
#	212348
#	213693
#	215006
#	216866
#	234602
#	248023
#
# Disc length: 3484 seconds
#
# Revision: 0
# Processed by: cddbd v1.5.1PL0 Copyright (c) Steve Scherf et al.
# Submitted via: CDex 1.51
#
DISCID=6f0d9a3e
DTITLE=Noah Baerman - Beginning Jazz Keyboard
DYEAR=1998
DGENRE=Jazz
TTITLE0=Introduction
TTITLE1=In Harmony
TTITLE2=Twilight In Sandy Hook
TTITLE3=Ton Doo
TTITLE4=Lead Sheets
TTITLE5=Nellie's Woe
TTITLE6=Purple Blues
TTITLE7=Major Scale Solo 1
TTITLE8=Major Scale Solo 2
TTITLE9=Major Scale Solo 3
TTITLE10=Sponge On A Stick
TTITLE11=Fatha Fatha
TTITLE12=Syncopation
TTITLE13=Solo On Fatha Fatha
TTITLE14=Embellishing A Melody 1
TTITLE15=Embellishing A Melody 2
TTITLE16=Basie's Minor Boogie
TTITLE17=Two And Four
TTITLE18=Yes, Les McCann Can
TTITLE19=6th Chords
TTITLE20=All You Need Is Seven
TTITLE21=A Jog Around The Block
TTITLE22=95 In The Shade
TTITLE23=Voicing 7th Chords 1
TTITLE24=Voicing 7th Chords 2
TTITLE25=Well, How About Bridgeport?
TTITLE26=Lead Sheets With 7th Chords
TTITLE27=Bouncin' With Bill E.
TTITLE28=Bouncin' With Bill E. (Shell Voicings)
TTITLE29=Bouncin' With Bill E. (BeBop Style Left-Hand Voicings)
TTITLE30=Bouncin' With Bill E. (Rootless Left Hand Voicings)
TTITLE31=Bouncin' With Bill E. (Rootless Shell Voicings)
TTITLE32=Comping
TTITLE33=Bouncin' With Bill E. (Sample Solo with Comping)
TTITLE34=All Hail The King
TTITLE35=Tommy's Touch
TTITLE36=Pebble Hill
TTITLE37=Brother Jack and Sister Shirley
TTITLE38=Blue Drew
TTITLE39=Natural Minor Scale
TTITLE40=Harmonic Minor Scale
TTITLE41=Natural and Harmonic Minor Scale
TTITLE42=Mingus Reincarnated
TTITLE43=Bright Red
TTITLE44=You Neeque
TTITLE45=You Neeque (Sample Solo)
TTITLE46=Senor Ruiz
TTITLE47=Melodic Scale Patterns
TTITLE48=Arpeggios 1
TTITLE49=Arpeggios 2
TTITLE50=Arpeggios 3
TTITLE51=Arpeggios 4
TTITLE52=Arpeggios 5
TTITLE53=Arpeggios 6
TTITLE54=The G Major Scale
TTITLE55=The G Major Pentatonic Scale
TTITLE56=Arpeggios
TTITLE57=Melodic Scale Patterns
TTITLE58=Mixing It up
TTITLE59=Wonder-ful
TTITLE60=(Sample Solo #1 on) Wonder-ful
TTITLE61=(Sample Solo #2 on) Wonder-ful
EXTD=YEAR: 1998
EXTT0=
EXTT1=
EXTT2=
EXTT3=
EXTT4=
EXTT5=
EXTT6=
EXTT7=
EXTT8=
EXTT9=
EXTT10=
EXTT11=
EXTT12=
EXTT13=
EXTT14=
EXTT15=
EXTT16=
EXTT17=
EXTT18=
EXTT19=
EXTT20=
EXTT21=
EXTT22=
EXTT23=
EXTT24=
EXTT25=
EXTT26=
EXTT27=
EXTT28=
EXTT29=
EXTT30=
EXTT31=
EXTT32=
EXTT33=
EXTT34=
EXTT35=
EXTT36=
EXTT37=
EXTT38=
EXTT39=
EXTT40=
EXTT41=
EXTT42=
EXTT43=
EXTT44=
EXTT45=
EXTT46=
EXTT47=
EXTT48=
EXTT49=
EXTT50=
EXTT51=
EXTT52=
EXTT53=
EXTT54=
EXTT55=
EXTT56=
EXTT57=
EXTT58=
EXTT59=
EXTT60=
EXTT61=
PLAYORDER=
